HIERARCHY
ROOT Hips
{
	OFFSET 0.000000 0.000000 0.000000
	CHANNELS 6 Xposition Yposition Zposition Zrotation Yrotation Xrotation 
	JOINT LowerBack
	{
		OFFSET 0.000000 0.000000 0.000000
		CHANNELS 3 Zrotation Yrotation Xrotation
		JOINT Spine
		{
			OFFSET 0.028270 2.035590 -0.193380
			CHANNELS 3 Zrotation Yrotation Xrotation
			JOINT Spine1
			{
				OFFSET 0.056720 2.048850 -0.042750
				CHANNELS 3 Zrotation Yrotation Xrotation
				JOINT Neck
				{
					OFFSET 0.000000 0.000000 0.000000
					CHANNELS 3 Zrotation Yrotation Xrotation
					JOINT Neck1
					{
						OFFSET -0.054170 1.746240 0.172020
						CHANNELS 3 Zrotation Yrotation Xrotation
						JOINT Head
						{
							OFFSET 0.104070 1.761360 -0.123970
							CHANNELS 3 Zrotation Yrotation Xrotation
							End Site
							{
								OFFSET 0.000000 0.000000 0.000000
							}
						}
					}
				}
				JOINT LeftShoulder
				{
					OFFSET 0.000000 0.000000 0.000000
					CHANNELS 3 Zrotation Yrotation Xrotation
					JOINT LeftArm
					{
						OFFSET 3.362410 1.200890 -0.311210
						CHANNELS 3 Zrotation Yrotation Xrotation
						JOINT LeftForeArm
						{
							OFFSET 4.983000 -0.000000 -0.000000
							CHANNELS 3 Zrotation Yrotation Xrotation
							JOINT LeftHand
							{
								OFFSET 3.483560 -0.000000 -0.000000
								CHANNELS 3 Zrotation Yrotation Xrotation
								JOINT LeftFingerBase
								{
									OFFSET 0.000000 0.000000 0.000000
									CHANNELS 3 Zrotation Yrotation Xrotation
									JOINT LeftHandIndex1
									{
										OFFSET 0.715260 -0.000000 -0.000000
										CHANNELS 3 Zrotation Yrotation Xrotation
										End Site
										{
											OFFSET 0.000000 0.000000 0.000000
										}
									}
								}
								JOINT LThumb
								{
									OFFSET 0.000000 0.000000 0.000000
									CHANNELS 3 Zrotation Yrotation Xrotation
									End Site
									{
										OFFSET 0.000000 0.000000 0.000000
									}
								}
							}
						}
					}
				}
				JOINT RightShoulder
				{
					OFFSET 0.000000 0.000000 0.000000
					CHANNELS 3 Zrotation Yrotation Xrotation
					JOINT RightArm
					{
						OFFSET -3.136600 1.374050 -0.404650
						CHANNELS 3 Zrotation Yrotation Xrotation
						JOINT RightForeArm
						{
							OFFSET -5.241900 -0.000000 -0.000000
							CHANNELS 3 Zrotation Yrotation Xrotation
							JOINT RightHand
							{
								OFFSET -3.444170 -0.000000 -0.000000
								CHANNELS 3 Zrotation Yrotation Xrotation
								JOINT RightFingerBase
								{
									OFFSET 0.000000 0.000000 0.000000
									CHANNELS 3 Zrotation Yrotation Xrotation
									JOINT RightHandIndex1
									{
										OFFSET -0.622530 -0.000000 -0.000000
										CHANNELS 3 Zrotation Yrotation Xrotation
										End Site
										{
											OFFSET 0.000000 0.000000 0.000000
										}
									}
								}
								JOINT RThumb
								{
									OFFSET 0.000000 0.000000 0.000000
									CHANNELS 3 Zrotation Yrotation Xrotation
									End Site
									{
										OFFSET 0.000000 0.000000 0.000000
									}
								}
							}
						}
					}
				}
			}
		}
	}
}
}
MOTION
Frames: 12
Frame Time: 0.008333
-3.261543 16.301707 -0.206129 -129.735306 88.598607 -98.432189 8.817386 -3.192667 3.813308 1.445681 -3.488615 -2.179849 -5.309700 -3.581563 0.137297 7.268650 -2.519606 3.091932 -3.262996 -0.327062 2.649990 0.000000 0.000000 0.000000 1.485666 -8.348799 -2.460183 -79.800362 -42.176982 34.505442 -178.627256 -77.919758 179.976156 3.472583 -6.278913 -0.226449 -0.202203 0.855006 -0.000000 0.000000 0.000000 0.000000 0.000000 0.000000 0.000000 9.318937 -4.718337 4.222846 56.996160 2.986240 -0.066488 3.627191 21.452256 0.005512 5.697641 -1.156485 -0.053220 0.079886 -0.066160 -0.000000 0.000000 0.000000 0.000000 0.000000 0.000000 0.000000 
-3.030394 16.160063 -0.194586 -119.841839 88.384583 -89.026521 9.260266 -3.162139 4.127723 1.511216 -3.456112 -2.141685 -5.366184 -3.550665 0.003374 7.452974 -2.195633 3.109257 -3.310129 -0.329202 2.654172 0.000000 0.000000 0.000000 1.191803 -8.634041 -2.315082 -78.972615 -42.288555 33.748936 -178.541687 -77.101662 179.976859 3.398927 -6.653511 -0.234246 -0.199018 0.878423 0.000000 0.000000 0.000000 0.000000 0.000000 0.000000 0.000000 9.703565 -4.446114 4.316173 55.924446 2.886856 0.303378 3.633113 22.043461 0.005936 5.483751 -0.875205 -0.037703 0.081508 -0.068960 -0.000000 0.000000 0.000000 0.000000 0.000000 0.000000 0.000000 
-2.803740 16.024298 -0.183699 -111.202778 88.089899 -80.906554 9.716063 -3.126445 4.515745 1.564980 -3.412931 -2.093216 -5.467686 -3.509449 -0.152170 7.764184 -1.704424 3.193606 -3.383793 -0.332932 2.674257 0.000000 0.000000 0.000000 0.802137 -9.003684 -2.113388 -77.959552 -42.290291 32.870873 -178.471777 -76.462535 179.977573 3.341020 -7.069269 -0.243830 -0.196484 0.901989 0.000000 0.000000 0.000000 0.000000 0.000000 0.000000 0.000000 10.358568 -4.068877 4.394984 54.673280 2.859219 0.618904 3.649892 22.466499 0.006567 5.313230 -0.475753 -0.018185 0.082906 -0.071579 -0.000000 0.000000 0.000000 0.000000 0.000000 0.000000 0.000000 
-2.581516 15.897188 -0.173144 -103.897255 87.734768 -74.146397 10.156080 -3.087513 4.976017 1.601004 -3.359025 -2.035548 -5.618076 -3.458124 -0.329451 8.212347 -1.038371 3.348960 -3.486844 -0.338378 2.711368 0.000000 0.000000 0.000000 0.325839 -9.456100 -1.853999 -76.764106 -42.154833 31.888347 -178.420464 -76.022441 179.978140 3.311418 -7.495811 -0.255505 -0.195136 0.924282 0.000000 0.000000 0.000000 0.000000 0.000000 0.000000 0.000000 11.311793 -3.583970 4.457046 53.240602 2.900161 0.820771 3.676183 22.709052 0.007364 5.182787 0.020528 0.004532 0.084093 -0.073867 -0.000000 0.000000 0.000000 0.000000 0.000000 0.000000 0.000000 
-2.363645 15.780584 -0.162519 -97.896942 87.342849 -68.693734 10.561234 -3.052449 5.485370 1.620008 -3.301158 -1.974232 -5.804976 -3.404249 -0.527427 8.766264 -0.187025 3.574466 -3.608138 -0.344902 2.765769 0.000000 0.000000 0.000000 -0.218981 -9.965958 -1.545301 -75.422407 -41.844771 30.821505 -178.394889 -75.807022 179.978200 3.330765 -7.883568 -0.269474 -0.195214 0.942774 -0.000000 0.000000 0.000000 0.000000 0.000000 0.000000 0.000000 12.483966 -2.968007 4.499953 51.731172 3.024598 0.754321 3.707614 22.648257 0.008359 5.057059 0.640398 0.031449 0.085113 -0.076157 -0.000000 0.000000 0.000000 0.000000 0.000000 0.000000 0.000000 
-2.149588 15.676005 -0.151187 -92.935084 86.934565 -64.269387 10.908674 -3.025474 6.029226 1.619487 -3.243250 -1.910135 -6.024452 -3.351669 -0.735402 9.410976 0.793205 3.852651 -3.745803 -0.352220 2.832923 0.000000 0.000000 0.000000 -0.802957 -10.504003 -1.202934 -73.983012 -41.342192 29.712848 -178.400740 -75.841383 179.977493 3.416656 -8.205338 -0.286842 -0.196998 0.955674 -0.000000 0.000000 0.000000 0.000000 0.000000 0.000000 0.000000 13.851514 -2.274207 4.520498 50.179206 3.298372 0.446693 3.740247 22.231973 0.009424 4.861255 1.368519 0.060662 0.086277 -0.078391 -0.000000 0.000000 0.000000 0.000000 0.000000 0.000000 0.000000 
-1.938916 15.584266 -0.138421 -88.726476 86.529632 -60.579683 11.180485 -3.008783 6.589273 1.600295 -3.188061 -1.849626 -6.262183 -3.303923 -0.960400 10.113970 1.931864 4.186615 -3.886258 -0.359669 2.914355 0.000000 0.000000 0.000000 -1.399078 -11.048747 -0.839097 -72.502082 -40.612398 28.591893 -178.444697 -76.150836 179.975709 3.587537 -8.441341 -0.308915 -0.200317 0.961368 -0.000000 0.000000 0.000000 0.000000 0.000000 0.000000 0.000000 15.323067 -1.445630 4.519217 48.711753 3.644903 -0.314324 3.759531 21.440939 0.010452 4.560206 2.160755 0.087971 0.087115 -0.080913 -0.000000 0.000000 0.000000 0.000000 0.000000 0.000000 0.000000 
-1.730684 15.505620 -0.123514 -85.045021 86.144029 -57.384788 11.358323 -3.003241 7.143850 1.561792 -3.138214 -1.793362 -6.510044 -3.263206 -1.187522 10.844948 3.149093 4.547348 -4.024897 -0.366850 3.002502 0.000000 0.000000 0.000000 -1.968779 -11.556975 -0.476869 -71.053574 -39.661936 27.513990 -178.531598 -76.771129 179.972659 3.858156 -8.580052 -0.336399 -0.205010 0.958482 -0.000000 0.000000 0.000000 0.000000 0.000000 0.000000 0.000000 16.843666 -0.546691 4.493992 47.386604 4.139182 -1.493531 3.754919 20.242526 0.011244 4.049405 2.997081 0.106973 0.087613 -0.083957 -0.000000 0.000000 0.000000 0.000000 0.000000 0.000000 0.000000 
-1.523995 15.439836 -0.105769 -81.686129 85.790871 -54.471164 11.428866 -3.006812 7.671473 1.505012 -3.094091 -1.743950 -6.756438 -3.229716 -1.410540 11.568506 4.414380 4.916671 -4.152817 -0.373309 3.092901 0.000000 0.000000 0.000000 -2.480665 -11.992351 -0.133299 -69.704567 -38.505508 26.523665 -178.663885 -77.740514 179.968253 4.240108 -8.617159 -0.369800 -0.210679 0.946135 -0.000000 0.000000 0.000000 0.000000 0.000000 0.000000 0.000000 18.334959 0.420059 4.445675 46.294694 4.768311 -3.179526 3.708775 18.655953 0.011562 3.255270 3.846346 0.109266 0.087174 -0.087988 -0.000000 0.000000 0.000000 0.000000 0.000000 0.000000 0.000000 
-1.317881 15.386319 -0.084683 -78.489858 85.478217 -51.671072 11.383245 -3.015230 8.150138 1.431415 -3.054412 -1.703342 -6.991053 -3.201751 -1.621673 12.252302 5.697429 5.274939 -4.262405 -0.378713 3.180652 0.000000 0.000000 0.000000 -2.910135 -12.321334 0.178675 -68.511782 -37.180149 25.660339 -178.840432 -79.102602 179.962562 4.739767 -8.549684 -0.408320 -0.216869 0.923899 -0.000000 0.000000 0.000000 0.000000 0.000000 0.000000 0.000000 19.726375 1.452604 4.376550 45.506781 5.506586 -5.432203 3.602414 16.748277 0.011087 2.107575 4.691647 0.084850 0.085146 -0.093428 -0.000000 0.000000 0.000000 0.000000 0.000000 0.000000 0.000000 
-1.111266 15.344263 -0.060002 -75.329853 85.208930 -48.849963 11.217754 -3.022392 8.560511 1.341879 -3.016151 -1.668907 -7.208923 -3.174949 -1.799521 12.867841 6.907102 5.584460 -4.353834 -0.383003 3.255555 0.000000 0.000000 0.000000 -3.234334 -12.504361 0.445393 -67.521197 -35.762778 24.964349 -179.055973 -80.903222 179.955852 5.357218 -8.374219 -0.449966 -0.223241 0.891876 0.000000 0.000000 0.000000 0.000000 0.000000 0.000000 0.000000 20.978893 2.473873 4.288500 45.034949 6.422755 -8.126448 3.426172 14.593127 0.009421 0.511405 5.553710 0.021624 0.081478 -0.100361 -0.000000 0.000000 0.000000 0.000000 0.000000 0.000000 0.000000 
-0.903364 15.312819 -0.031786 -72.111402 84.981699 -45.910593 10.938381 -3.019858 8.884324 1.239752 -2.973645 -1.644577 -7.400841 -3.143552 -1.946439 13.397232 8.074689 5.845572 -4.418127 -0.385966 3.318227 0.000000 0.000000 0.000000 -3.456803 -12.534522 0.671377 -66.746210 -34.310009 24.444944 -179.301776 -83.181081 179.948530 6.086320 -8.084013 -0.491337 -0.229394 0.850799 0.000000 0.000000 0.000000 0.000000 0.000000 0.000000 0.000000 22.029977 3.543391 4.187805 44.930373 7.363427 -11.286558 3.169891 12.404190 0.006189 -1.531553 6.431476 -0.091513 0.075908 -0.108646 -0.000000 0.000000 0.000000 0.000000 0.000000 0.000000 0.000000 
